<svg xmlns="http://www.w3.org/2000/svg" xmlns:xlink="http://www.w3.org/1999/xlink" version="1.0" viewBox="-22 -22 44 44" xml:space="preserve" fill="#000000">
    <path d="M 0 10 a 1 1 90 0 0 -0 -20 a 1 1 90 0 0 0 20 z M -1 13 a 1 1 90 0 1 2 -0 l 0 3 a 1 1 90 0 1 -2 0 z M -1 -16 a 1 1 90 0 1 2 -0 l 0 3 a 1 1 90 0 1 -2 0 z M 13 1 a 1 1 90 0 1 -0 -2 l 7 -0 a 1 1 90 0 1 0 2 z M -20 1 a 1 1 90 0 1 -0 -2 l 7 -0 a 1 1 90 0 1 0 2 z M -10.7583 -7.366 a 1 1 210 0 1 -1 1.7321 l -2.5981 -1.5 a 1 1 210 0 1 1 -1.7321 z M 14.3564 7.134 a 1 1 210 0 1 -1 1.7321 l -2.5981 -1.5 a 1 1 210 0 1 1 -1.7321 z M -7.366 10.7583 a 1 1 210 0 1 1.7321 1 l -3.5 6.0622 a 1 1 210 0 1 -1.7321 -1 z M 9.134 -17.8205 a 1 1 210 0 1 1.7321 1 l -3.5 6.0622 a 1 1 210 0 1 -1.7321 -1 z M 11.7583 -5.634 a 1 1 330 0 1 -1 -1.7321 l 2.5981 -1.5 a 1 1 330 0 1 1 1.7321 z M -13.3564 8.866 a 1 1 330 0 1 -1 -1.7321 l 2.5981 -1.5 a 1 1 330 0 1 1 1.7321 z M -5.634 -11.7583 a 1 1 330 0 1 -1.7321 1 l -3.5 -6.0622 a 1 1 330 0 1 1.7321 -1 z M 10.866 16.8205 a 1 1 330 0 1 -1.7321 1 l -3.5 -6.0622 a 1 1 330 0 1 1.7321 -1 z" />
</svg>